<svg width="36" height="36" viewBox="0 0 36 36" fill="none" xmlns="http://www.w3.org/2000/svg">
<path d="M2.67962 5.32038L6.29289 1.70711C6.68342 1.31658 7.31658 1.31658 7.70711 1.70711L14.2929 8.29289C14.6834 8.68342 14.6834 9.31658 14.2929 9.70711L11.5097 12.4903C11.2053 12.7947 11.1298 13.2597 11.3223 13.6447L11.5714 14.1427C13.7969 18.5939 17.4061 22.2031 21.8573 24.4286L22.3553 24.6777C22.7403 24.8702 23.2053 24.7947 23.5097 24.4903L26.2929 21.7071C26.6834 21.3166 27.3166 21.3166 27.7071 21.7071L34.2929 28.2929C34.6834 28.6834 34.6834 29.3166 34.2929 29.7071L30.6796 33.3204C28.5683 35.4317 25.2257 35.6693 22.837 33.8777L13.6286 26.9714C11.885 25.6638 10.3362 24.115 9.02857 22.3714L2.12226 13.163C0.330722 10.7743 0.568269 7.43173 2.67962 5.32038Z" fill="#7E869E" fill-opacity="0.25" stroke="white" stroke-width="1.2"/>
</svg>
