<svg width="170" height="114" viewBox="0 0 170 114" fill="none" xmlns="http://www.w3.org/2000/svg">
<path id="Vector" d="M160.66 0.0139473C160.164 -0.00370751 159.664 0.000706192 159.168 0.000706192C109.715 0.000706192 60.2626 0.000706192 10.8099 0.000706192C10.3139 0.000706192 9.81348 -0.00370751 9.3175 0.0095336C4.26019 0.172841 1.16469 2.64893 0 7.45986C0 40.4876 0 73.5153 0 106.539C1.19569 111.38 4.26019 113.826 9.33078 113.989C9.88434 114.007 10.4379 113.998 10.9915 113.998C60.329 113.998 109.667 113.998 159.004 113.998C159.558 113.998 160.111 114.007 160.665 113.989C165.735 113.83 168.8 111.385 170 106.539C170 73.6213 170 40.7039 170 7.78648C169.004 2.7681 165.895 0.177254 160.66 0.0139473ZM157.901 7.21711C151.697 11.8515 145.745 16.2961 139.789 20.7363C123.523 32.874 107.253 45.0072 90.9829 57.1405C86.9308 60.1639 83.0293 60.1462 78.9906 57.1317C57.2025 40.8672 35.4056 24.6071 13.6087 8.3426C13.188 8.02923 12.7761 7.70262 12.1384 7.21711C60.7896 7.21711 109.157 7.21711 157.901 7.21711ZM163.344 102.045C160.643 98.7264 158.123 95.6412 155.607 92.5472C146.144 80.9215 136.671 69.3002 127.225 57.6569C126.194 56.3858 125.011 55.631 123.364 56.0591C122.088 56.3857 121.305 57.2861 121.03 58.5882C120.764 59.8505 121.353 60.8083 122.106 61.7352C130.529 72.0765 138.948 82.4222 147.366 92.7679C151.117 97.3802 154.868 101.993 158.743 106.755C109.551 106.755 60.5239 106.755 11.2793 106.755C12.6167 105.095 13.8965 103.498 15.1896 101.909C26.0438 88.5705 36.898 75.2323 47.761 61.8985C48.474 61.0246 49.1294 60.1242 49.0143 58.9501C48.8814 57.5774 48.1507 56.5446 46.8178 56.1165C45.4405 55.6751 44.1651 55.9929 43.2263 57.1361C40.6356 60.283 38.0715 63.4609 35.4986 66.6255C26.0704 78.2115 16.6466 89.7975 7.2184 101.383C7.0944 101.534 6.95712 101.67 6.64713 102.006C6.64713 71.666 6.64713 41.6087 6.64713 11.3042C8.84365 12.9329 10.9029 14.4556 12.9577 15.9915C33.7405 31.4925 54.5189 46.9978 75.3017 62.5031C81.3377 67.0095 88.5915 67.0537 94.6275 62.5561C117.013 45.8767 139.382 29.1753 161.759 12.4827C162.228 12.1296 162.706 11.7897 163.34 11.3263C163.344 41.5954 163.344 71.6483 163.344 102.045Z" fill="#ED3125"/>
</svg>
