<svg width="65" height="64" viewBox="0 0 65 64" fill="none" xmlns="http://www.w3.org/2000/svg">
<g id="Group">
<path id="Vector" d="M32.5949 63.8383C50.2234 63.8383 64.5141 49.5476 64.5141 31.9192C64.5141 14.2907 50.2234 0 32.5949 0C14.9665 0 0.675781 14.2907 0.675781 31.9192C0.675781 49.5476 14.9665 63.8383 32.5949 63.8383Z" fill="#ED3125"/>
<g id="Group_2">
<g id="WA_Logo_2_">
<g id="Group_3">
<path id="Vector_2" fill-rule="evenodd" clip-rule="evenodd" d="M47.9484 16.9575C44.1276 13.132 39.0395 11.0229 33.625 11.0229C22.4651 11.0229 13.3812 20.1022 13.3764 31.2621C13.3764 34.8276 14.308 38.3127 16.0813 41.3816L13.2109 51.87L23.9452 49.0564C26.9007 50.6689 30.2345 51.5201 33.6203 51.5201H33.6297C44.7896 51.5201 53.8736 42.4409 53.8783 31.2763C53.8783 25.8713 51.774 20.7831 47.9484 16.9575ZM33.625 48.1012H33.6203C30.5986 48.1012 27.6384 47.2878 25.0565 45.7557L24.4418 45.3916L18.0721 47.0609L19.7745 40.852L19.3725 40.2136C17.6891 37.5371 16.8001 34.4398 16.8001 31.2621C16.8048 21.9842 24.3519 14.4371 33.6392 14.4371C38.1363 14.4371 42.3591 16.1915 45.5368 19.3692C48.7145 22.5469 50.4642 26.7745 50.4594 31.2715C50.4547 40.5541 42.9029 48.1012 33.625 48.1012ZM42.8603 35.499C42.3543 35.2437 39.867 34.0237 39.4036 33.8534C38.9402 33.6832 38.6044 33.5981 38.2639 34.1088C37.9282 34.6148 36.9588 35.7544 36.6609 36.0901C36.3677 36.4259 36.0698 36.4684 35.5638 36.2178C35.0578 35.9625 33.4264 35.4328 31.4971 33.7068C29.9933 32.3639 28.9766 30.7088 28.6835 30.2028C28.3903 29.6968 28.6504 29.4226 28.9057 29.1719C29.1327 28.945 29.4117 28.5809 29.6623 28.2877C29.9129 27.9945 29.9981 27.7817 30.1683 27.446C30.3385 27.1102 30.2534 26.8123 30.1257 26.5617C29.9981 26.311 28.9861 23.819 28.5652 22.807C28.1538 21.8187 27.7377 21.9559 27.4256 21.9369C27.1324 21.9228 26.792 21.918 26.4562 21.918C26.1205 21.918 25.5719 22.0457 25.1085 22.5517C24.6451 23.0577 23.34 24.2824 23.34 26.7697C23.34 29.2571 25.1511 31.664 25.4064 31.9998C25.6618 32.3355 28.9719 37.4473 34.0506 39.6367C35.2564 40.1569 36.2022 40.469 36.9352 40.7007C38.1457 41.0837 39.2522 41.0317 40.1223 40.8993C41.0965 40.7527 43.1156 39.6745 43.5365 38.4923C43.9574 37.3102 43.9574 36.2982 43.8297 36.0854C43.702 35.8821 43.3663 35.7544 42.8603 35.499Z" fill="white"/>
</g>
</g>
</g>
</g>
</svg>
