<svg width="50" height="50" viewBox="0 0 50 50" fill="none" xmlns="http://www.w3.org/2000/svg">
<circle cx="25" cy="25" r="25" fill="#395FD2"/>
<g clip-path="url(#clip0_1245_138)">
<path d="M24.5 16.0727C27.5712 16.0727 27.9338 16.0835 29.146 16.1404C30.2662 16.1918 30.8751 16.3785 31.2809 16.5354C31.8167 16.7438 32.2009 16.9927 32.6041 17.3959C33.0073 17.7991 33.2562 18.1806 33.4646 18.7191C33.6215 19.1249 33.8082 19.7338 33.8596 20.854C33.9138 22.0662 33.9273 22.4315 33.9273 25.5C33.9273 28.5685 33.9165 28.9338 33.8596 30.146C33.8082 31.2662 33.6215 31.8751 33.4646 32.2809C33.2562 32.8167 33.0073 33.2009 32.6041 33.6041C32.2009 34.0073 31.8194 34.2562 31.2809 34.4646C30.8751 34.6215 30.2662 34.8082 29.146 34.8596C27.9338 34.9138 27.5712 34.9273 24.5 34.9273C21.4288 34.9273 21.0662 34.9165 19.854 34.8596C18.7338 34.8082 18.1249 34.6215 17.7191 34.4646C17.1833 34.2562 16.7991 34.0073 16.3959 33.6041C15.9927 33.2009 15.7438 32.8194 15.5354 32.2809C15.3785 31.8751 15.1918 31.2662 15.1404 30.146C15.0862 28.9338 15.0727 28.5685 15.0727 25.5C15.0727 22.4315 15.0835 22.0662 15.1404 20.854C15.1918 19.7338 15.3785 19.1249 15.5354 18.7191C15.7438 18.1833 15.9927 17.7991 16.3959 17.3959C16.7991 16.9927 17.1806 16.7438 17.7191 16.5354C18.1249 16.3785 18.7338 16.1918 19.854 16.1404C21.0662 16.0835 21.4288 16.0727 24.5 16.0727ZM24.5 14C21.3774 14 20.9851 14.0135 19.7593 14.0704C18.5362 14.1272 17.7001 14.3193 16.9668 14.6061C16.2119 14.9011 15.5706 15.2934 14.9293 15.932C14.2907 16.5706 13.8956 17.2119 13.6034 17.9695C13.3193 18.7001 13.1245 19.5362 13.0676 20.762C13.0135 21.9851 13 22.3774 13 25.5C13 28.6226 13.0135 29.0149 13.0704 30.2407C13.1272 31.4638 13.3193 32.2999 13.6061 33.0332C13.9011 33.7881 14.2934 34.4294 14.932 35.0707C15.5706 35.7093 16.2119 36.1044 16.9695 36.3966C17.7001 36.6807 18.5362 36.8755 19.762 36.9324C20.9851 36.9865 21.3774 37 24.5 37C27.6226 37 28.0149 36.9865 29.2407 36.9296C30.4638 36.8728 31.2999 36.6807 32.0332 36.3939C32.7881 36.0989 33.4294 35.7066 34.0707 35.068C34.7093 34.4294 35.1044 33.7881 35.3966 33.0305C35.6807 32.2999 35.8755 31.4638 35.9324 30.238C35.9865 29.0149 36 28.6226 36 25.5C36 22.3774 35.9865 21.9851 35.9296 20.7593C35.8728 19.5362 35.6807 18.7001 35.3939 17.9668C35.0989 17.2119 34.7066 16.5706 34.068 15.9293C33.4294 15.2907 32.7881 14.8956 32.0305 14.6034C31.2999 14.3193 30.4638 14.1245 29.238 14.0676C28.0149 14.0135 27.6226 14 24.5 14Z" fill="white"/>
<path d="M24.4999 19.5957C21.2393 19.5957 18.5957 22.2393 18.5957 25.4999C18.5957 28.7605 21.2393 31.4042 24.4999 31.4042C27.7605 31.4042 30.4042 28.7605 30.4042 25.4999C30.4042 22.2393 27.7605 19.5957 24.4999 19.5957ZM24.4999 29.3342C22.3839 29.3342 20.6657 27.6186 20.6657 25.4999C20.6657 23.3812 22.3812 21.6657 24.4999 21.6657C26.6186 21.6657 28.3342 23.3812 28.3342 25.4999C28.3342 27.6186 26.6159 29.3342 24.4999 29.3342Z" fill="white"/>
<path d="M30.6398 20.7405C31.4019 20.7405 32.0198 20.1226 32.0198 19.3605C32.0198 18.5983 31.4019 17.9805 30.6398 17.9805C29.8776 17.9805 29.2598 18.5983 29.2598 19.3605C29.2598 20.1226 29.8776 20.7405 30.6398 20.7405Z" fill="white"/>
</g>
<defs>
<clipPath id="clip0_1245_138">
<rect width="23" height="23" fill="white" transform="translate(13 14)"/>
</clipPath>
</defs>
</svg>
